<?xml version="1.0" encoding="utf-8"?>
<!-- Generator: Adobe Illustrator 23.1.0, SVG Export Plug-In . SVG Version: 6.00 Build 0)  -->
<svg version="1.1" id="Слой_1" xmlns="http://www.w3.org/2000/svg" xmlns:xlink="http://www.w3.org/1999/xlink" x="0px" y="0px"
	 viewBox="0 0 173.72 209.36" style="enable-background:new 0 0 173.72 209.36;" xml:space="preserve">
<style type="text/css">
	.st0{clip-path:url(#SVGID_1_);fill:url(#SVGID_2_);}
	.st1{clip-path:url(#SVGID_3_);fill:url(#SVGID_4_);}
	.st2{clip-path:url(#SVGID_5_);fill:url(#SVGID_6_);}
	.st3{clip-path:url(#SVGID_7_);fill:url(#SVGID_8_);}
</style>
<g>
	<g>
		<defs>
			<polygon id="SVGID_13_" points="86.86,144.65 86.86,144.65 86.86,144.65 86.86,144.65 72.41,155.68 77.21,165.62 86.86,165.62 
				86.86,165.62 86.86,165.62 96.51,165.62 101.31,155.68 86.86,144.65 			"/>
		</defs>
		<clipPath id="SVGID_1_">
			<use xlink:href="#SVGID_13_"  style="overflow:visible;"/>
		</clipPath>
		
			<linearGradient id="SVGID_2_" gradientUnits="userSpaceOnUse" x1="-376.7559" y1="266.9832" x2="-375.7559" y2="266.9832" gradientTransform="matrix(131.3294 -76.5026 -76.5026 -131.3294 69945.0781 6421.7637)">
			<stop  offset="0" style="stop-color:#8474A1"/>
			<stop  offset="1" style="stop-color:#6EC6CA"/>
		</linearGradient>
		<polygon class="st0" points="63.29,149.96 93.99,132.08 110.43,160.31 79.73,178.19 		"/>
	</g>
	<g>
		<defs>
			<polygon id="SVGID_16_" points="153.32,55.05 153.32,26.71 108.47,0 86.86,12.75 65.25,0 20.4,26.7 20.4,55.05 0,66.84 0,112.45 
				20.42,124.85 20.42,151.64 61.63,177.81 63.5,171.95 26.6,148.26 26.6,124.78 44.01,114.13 62.05,125.1 62.05,143.12 
				68.25,139.63 68.25,121.55 44,106.87 23.45,119.44 6.2,108.96 6.2,70.42 23.54,60.39 44,72.9 68.25,58.15 68.25,36.65 
				62.05,40.23 62.05,54.67 44.01,65.64 26.6,54.99 26.6,30.23 65.26,7.21 86.86,19.95 86.86,19.95 86.86,19.95 86.86,19.95 
				108.46,7.21 147.12,30.23 147.12,54.99 129.71,65.64 111.67,54.67 111.67,40.23 105.47,36.65 105.47,58.15 129.72,72.9 
				150.18,60.39 167.53,70.42 167.53,108.96 150.27,119.44 129.72,106.87 105.47,121.55 105.47,139.63 111.67,143.12 111.67,125.1 
				129.71,114.13 147.12,124.78 147.12,148.26 109.9,172.15 112.1,177.81 153.3,151.64 153.3,124.85 173.72,112.45 173.72,66.84 			
				"/>
		</defs>
		<clipPath id="SVGID_3_">
			<use xlink:href="#SVGID_16_"  style="overflow:visible;"/>
		</clipPath>
		
			<linearGradient id="SVGID_4_" gradientUnits="userSpaceOnUse" x1="-376.7559" y1="266.9732" x2="-375.7559" y2="266.9732" gradientTransform="matrix(131.3294 -76.5026 -76.5026 -131.3294 69915.5078 6371.0034)">
			<stop  offset="2.717173e-07" style="stop-color:#8474A1"/>
			<stop  offset="1" style="stop-color:#6EC6CA"/>
		</linearGradient>
		<polygon class="st1" points="-77.34,45.05 129.71,-75.56 251.06,132.76 44.01,253.37 		"/>
	</g>
	<g>
		<defs>
			<polygon id="SVGID_19_" points="129.72,82.08 105.46,96.91 89.97,87.5 89.96,68.84 86.86,66.98 83.76,68.84 83.75,87.5 
				68.27,96.91 44,82.07 44,89.34 68.26,104.17 86.86,92.85 105.46,104.17 129.72,89.34 			"/>
		</defs>
		<clipPath id="SVGID_5_">
			<use xlink:href="#SVGID_19_"  style="overflow:visible;"/>
		</clipPath>
		
			<linearGradient id="SVGID_6_" gradientUnits="userSpaceOnUse" x1="-376.7559" y1="266.9699" x2="-375.7559" y2="266.9699" gradientTransform="matrix(131.3294 -76.5026 -76.5026 -131.3294 69913.8125 6368.0894)">
			<stop  offset="0" style="stop-color:#8474A1"/>
			<stop  offset="1" style="stop-color:#6EC6CA"/>
		</linearGradient>
		<polygon class="st2" points="27.83,76.4 108,29.7 145.9,94.75 65.72,141.45 		"/>
	</g>
	<g>
		<defs>
			<path id="SVGID_22_" d="M86.86,168.48L86.86,168.48h-9.65l-4.8,25.02c0,0,2.83,4.52,5.8,7.93c3.09,3.55,8.63,7.91,8.65,7.93v0
				l0,0l0,0v0c0.02-0.02,5.56-4.37,8.65-7.93c2.97-3.42,5.8-7.93,5.8-7.93l-4.8-25.02H86.86z"/>
		</defs>
		<clipPath id="SVGID_7_">
			<use xlink:href="#SVGID_22_"  style="overflow:visible;"/>
		</clipPath>
		
			<linearGradient id="SVGID_8_" gradientUnits="userSpaceOnUse" x1="-376.7559" y1="266.9512" x2="-375.7559" y2="266.9512" gradientTransform="matrix(131.3294 -76.5026 -76.5026 -131.3294 69957.3281 6442.7896)">
			<stop  offset="0" style="stop-color:#8474A1"/>
			<stop  offset="1" style="stop-color:#6EC6CA"/>
		</linearGradient>
		<polygon class="st3" points="54.63,178.84 93.99,155.91 119.09,199 79.73,221.93 		"/>
	</g>
</g>
</svg>
